# xmcd
#
# Track frame offsets: 
#        150
#        21797
#        61870
#        94733
#        132378
#        175771
#        213227
#        251329
#        277476
#
# Disc length: 3990 seconds
#
# Revision: 5
# Processed by: cddbd v1.5.2PL0 Copyright (c) Steve Scherf et al.
# Submitted via: ExactAudioCopyFreeDBPlugin 1.0
#
DISCID=7e0f9409
DTITLE=Art Blakey and The Jazz Messengers - Hard Bop
DYEAR=1956
DGENRE=Jazz
TTITLE0=Cranky Spanky
TTITLE1=Stella by Starlight
TTITLE2=My Heart Stood Still
TTITLE3=Little Melonae
TTITLE4=Stanley's Stiff Chickens
TTITLE5=Nica's Tempo
TTITLE6=Dee's Dilemma
TTITLE7=Just For Marty
TTITLE8=Gershwin Medley
EXTD=YEAR: 2006
EXTT0=
EXTT1=
EXTT2=
EXTT3=
EXTT4=
EXTT5=
EXTT6=
EXTT7=
EXTT8=
PLAYORDER=
